<?xml version="1.0" standalone="no"?>
<!DOCTYPE svg PUBLIC "-//W3C//DTD SVG 20010904//EN"
 "http://www.w3.org/TR/2001/REC-SVG-20010904/DTD/svg10.dtd">
<svg version="1.0" xmlns="http://www.w3.org/2000/svg"
 width="800.000000pt" height="800.000000pt" viewBox="0 0 800.000000 800.000000"
 preserveAspectRatio="xMidYMid meet">
<metadata>
Created by potrace 1.11, written by Peter Selinger 2001-2013
</metadata>
<g transform="translate(0.000000,800.000000) scale(0.100000,-0.100000)"
fill="#000000" stroke="none">
<path d="M5310 7235 c-529 -74 -1133 -340 -1580 -695 -235 -187 -510 -487
-657 -716 -10 -16 -12 -8 -13 46 -1 36 -5 85 -8 109 l-7 44 -38 -46 c-21 -26
-43 -45 -48 -42 -5 4 -9 31 -9 61 0 30 -3 54 -7 54 -5 0 -19 -16 -33 -35 -14
-18 -28 -31 -31 -27 -3 4 -14 40 -25 80 -10 39 -21 72 -25 72 -3 0 -9 -26 -13
-57 -9 -81 -21 -97 -39 -53 -8 19 -20 60 -27 90 -16 67 -21 57 -46 -85 l-17
-100 -18 55 -17 55 -6 -35 c-3 -19 -31 -246 -62 -505 -30 -258 -62 -524 -70
-590 -28 -232 -63 -997 -74 -1610 -24 -1353 -28 -1497 -44 -1595 -20 -120 -29
-153 -44 -158 -19 -6 -29 28 -87 308 -65 315 -231 1110 -279 1334 l-33 160 30
25 c16 14 35 29 40 33 12 7 8 26 -109 578 -78 370 -76 365 -166 545 -125 253
-274 438 -376 469 -26 8 -65 22 -87 31 -75 32 -250 4 -425 -67 -140 -57 -228
-116 -336 -223 -87 -87 -107 -113 -147 -195 -57 -115 -74 -181 -87 -325 -20
-227 -9 -389 33 -475 30 -60 98 -130 126 -130 13 0 36 -9 52 -21 37 -26 155
-37 217 -20 57 16 109 63 122 112 19 71 -8 220 -59 314 -40 75 -24 219 50 440
38 114 78 187 153 278 l23 29 36 -64 c58 -104 191 -375 247 -503 103 -236 118
-292 180 -655 28 -162 86 -493 130 -735 43 -242 102 -570 130 -730 140 -791
244 -1193 331 -1274 29 -27 141 -51 239 -51 68 0 95 5 168 34 133 51 266 121
295 155 61 73 82 143 117 381 35 245 35 252 70 1275 19 562 30 778 65 1335 8
124 12 239 9 256 -3 18 -1 34 4 38 6 3 52 -14 104 -39 156 -75 249 -90 378
-60 88 21 218 87 264 134 51 52 44 71 -26 71 -119 0 -257 53 -337 127 -42 40
-45 44 -28 57 22 17 22 22 -9 86 -41 86 -65 194 -71 326 -6 133 -2 163 54 339
153 479 399 863 746 1161 335 288 780 496 1215 569 l101 17 46 -23 c123 -62
233 -189 276 -322 21 -62 24 -91 23 -212 0 -182 -31 -303 -139 -548 -151 -344
-542 -896 -803 -1134 l-89 -82 -31 157 c-17 86 -52 262 -77 391 l-46 234 41
36 41 36 -36 175 c-19 96 -40 188 -46 203 -15 36 -55 67 -86 67 -14 0 -36 9
-50 20 -34 27 -49 26 -194 -14 -197 -55 -319 -112 -319 -150 0 -5 11 -21 24
-35 31 -33 50 -91 81 -244 49 -243 103 -682 162 -1307 34 -365 39 -626 18
-994 -23 -418 -94 -1373 -110 -1488 l-5 -38 94 0 93 0 120 109 c66 60 130 121
141 136 35 45 66 223 96 555 32 345 71 1015 83 1403 3 120 10 220 15 223 4 3
8 1 8 -5 0 -5 19 -28 43 -51 212 -198 731 -505 1527 -903 466 -234 702 -342
780 -358 97 -21 328 -18 415 4 74 19 196 75 202 92 1 6 -97 69 -220 142 -1037
615 -2453 1456 -2456 1459 -5 5 278 304 359 379 403 374 671 838 821 1415 26
103 29 298 5 395 l-15 60 35 28 34 29 -27 51 c-37 69 -138 174 -205 215 -74
44 -295 118 -391 131 -101 14 -228 12 -347 -4z"/>
</g>
</svg>
